<mxfile host="app.diagrams.net" modified="2024-05-26T10:29:34.991Z" agent="Mozilla/5.0 (Windows NT 10.0; Win64; x64) AppleWebKit/537.36 (KHTML, like Gecko) Chrome/119.0.6045.160 Safari/537.36" etag="EsQBAaVDm3LciNoMvQFP" version="24.4.8" type="github">
  <diagram name="第 1 页" id="ZmrfIDEmr7-zzXH3b9oC">
    <mxGraphModel dx="1349" dy="463" grid="1" gridSize="10" guides="1" tooltips="1" connect="1" arrows="1" fold="1" page="1" pageScale="1" pageWidth="827" pageHeight="1169" math="0" shadow="0">
      <root>
        <mxCell id="0" />
        <mxCell id="1" parent="0" />
        <mxCell id="pFg-MiSF4HNmkLeRIT8W-5" style="edgeStyle=orthogonalEdgeStyle;rounded=0;orthogonalLoop=1;jettySize=auto;html=1;exitX=0.5;exitY=1;exitDx=0;exitDy=0;entryX=0.5;entryY=0;entryDx=0;entryDy=0;" edge="1" parent="1" source="pFg-MiSF4HNmkLeRIT8W-1" target="pFg-MiSF4HNmkLeRIT8W-2">
          <mxGeometry relative="1" as="geometry" />
        </mxCell>
        <mxCell id="pFg-MiSF4HNmkLeRIT8W-1" value="" style="rounded=0;whiteSpace=wrap;html=1;" vertex="1" parent="1">
          <mxGeometry x="260" y="100" width="120" height="60" as="geometry" />
        </mxCell>
        <mxCell id="pFg-MiSF4HNmkLeRIT8W-6" style="edgeStyle=orthogonalEdgeStyle;rounded=0;orthogonalLoop=1;jettySize=auto;html=1;exitX=0.5;exitY=1;exitDx=0;exitDy=0;entryX=0.5;entryY=0;entryDx=0;entryDy=0;" edge="1" parent="1" source="pFg-MiSF4HNmkLeRIT8W-2" target="pFg-MiSF4HNmkLeRIT8W-4">
          <mxGeometry relative="1" as="geometry" />
        </mxCell>
        <mxCell id="pFg-MiSF4HNmkLeRIT8W-2" value="" style="ellipse;whiteSpace=wrap;html=1;fillColor=#dae8fc;strokeColor=#6c8ebf;" vertex="1" parent="1">
          <mxGeometry x="260" y="200" width="120" height="80" as="geometry" />
        </mxCell>
        <mxCell id="pFg-MiSF4HNmkLeRIT8W-3" value="" style="swimlane;startSize=0;fillColor=#f8cecc;strokeColor=#b85450;gradientColor=default;" vertex="1" parent="1">
          <mxGeometry x="520" y="110" width="200" height="50" as="geometry" />
        </mxCell>
        <mxCell id="pFg-MiSF4HNmkLeRIT8W-4" value="哈哈" style="rounded=1;whiteSpace=wrap;html=1;fillColor=#ffe6cc;strokeColor=#d79b00;" vertex="1" parent="1">
          <mxGeometry x="260" y="360" width="120" height="40" as="geometry" />
        </mxCell>
      </root>
    </mxGraphModel>
  </diagram>
</mxfile>
